<mxfile host="Electron" modified="2024-06-04T09:01:15.544Z" agent="Mozilla/5.0 (Windows NT 10.0; Win64; x64) AppleWebKit/537.36 (KHTML, like Gecko) draw.io/24.2.5 Chrome/120.0.6099.109 Electron/28.1.0 Safari/537.36" etag="aO7QtltiGF61wtcCD2Sw" version="24.2.5" type="device">
  <diagram name="Page-1" id="PDRq7cuxduRDgMPdtTij">
    <mxGraphModel dx="2465" dy="955" grid="1" gridSize="10" guides="1" tooltips="1" connect="1" arrows="1" fold="1" page="1" pageScale="1" pageWidth="850" pageHeight="1100" math="0" shadow="0">
      <root>
        <mxCell id="0" />
        <mxCell id="1" parent="0" />
        <mxCell id="bbLPw2W6CgXG6qx6nMK9-8" value="Customer" style="swimlane;fontStyle=1;align=center;verticalAlign=top;childLayout=stackLayout;horizontal=1;startSize=26;horizontalStack=0;resizeParent=1;resizeParentMax=0;resizeLast=0;collapsible=1;marginBottom=0;whiteSpace=wrap;html=1;" vertex="1" parent="1">
          <mxGeometry x="-330" y="380" width="170" height="198" as="geometry" />
        </mxCell>
        <mxCell id="bbLPw2W6CgXG6qx6nMK9-9" value="-CustomerID:String&lt;div&gt;-name:String&lt;br&gt;&lt;/div&gt;&lt;div&gt;-password:String&lt;br&gt;&lt;/div&gt;&lt;div&gt;-phoneNumber:String&lt;br&gt;&lt;/div&gt;&lt;div&gt;-address:String&lt;br&gt;&lt;/div&gt;&lt;div&gt;-email:String&lt;br&gt;&lt;/div&gt;" style="text;strokeColor=none;fillColor=none;align=left;verticalAlign=top;spacingLeft=4;spacingRight=4;overflow=hidden;rotatable=0;points=[[0,0.5],[1,0.5]];portConstraint=eastwest;whiteSpace=wrap;html=1;" vertex="1" parent="bbLPw2W6CgXG6qx6nMK9-8">
          <mxGeometry y="26" width="170" height="94" as="geometry" />
        </mxCell>
        <mxCell id="bbLPw2W6CgXG6qx6nMK9-10" value="" style="line;strokeWidth=1;fillColor=none;align=left;verticalAlign=middle;spacingTop=-1;spacingLeft=3;spacingRight=3;rotatable=0;labelPosition=right;points=[];portConstraint=eastwest;strokeColor=inherit;" vertex="1" parent="bbLPw2W6CgXG6qx6nMK9-8">
          <mxGeometry y="120" width="170" height="8" as="geometry" />
        </mxCell>
        <mxCell id="bbLPw2W6CgXG6qx6nMK9-11" value="+ register(): void&lt;div&gt;+ login(): void&lt;br&gt;&lt;/div&gt;&lt;div&gt;+ logout(): void&lt;br&gt;&lt;/div&gt;&lt;div&gt;+ updateProfile(): void&lt;br&gt;&lt;/div&gt;" style="text;strokeColor=none;fillColor=none;align=left;verticalAlign=top;spacingLeft=4;spacingRight=4;overflow=hidden;rotatable=0;points=[[0,0.5],[1,0.5]];portConstraint=eastwest;whiteSpace=wrap;html=1;" vertex="1" parent="bbLPw2W6CgXG6qx6nMK9-8">
          <mxGeometry y="128" width="170" height="70" as="geometry" />
        </mxCell>
        <mxCell id="bbLPw2W6CgXG6qx6nMK9-12" value="Book" style="swimlane;fontStyle=1;align=center;verticalAlign=top;childLayout=stackLayout;horizontal=1;startSize=26;horizontalStack=0;resizeParent=1;resizeParentMax=0;resizeLast=0;collapsible=1;marginBottom=0;whiteSpace=wrap;html=1;" vertex="1" parent="1">
          <mxGeometry x="490" width="150" height="230" as="geometry" />
        </mxCell>
        <mxCell id="bbLPw2W6CgXG6qx6nMK9-13" value="-BookID:String&lt;div&gt;-title:String&lt;br&gt;&lt;/div&gt;&lt;div&gt;-author:String&lt;br&gt;&lt;/div&gt;&lt;div&gt;-publisher:String&lt;/div&gt;&lt;div&gt;-price:double&lt;br&gt;&lt;/div&gt;&lt;div&gt;-stock:int&lt;br&gt;&lt;/div&gt;&lt;div&gt;-decription:String&lt;br&gt;&lt;/div&gt;&lt;div&gt;-category:String&lt;br&gt;&lt;/div&gt;" style="text;strokeColor=none;fillColor=none;align=left;verticalAlign=top;spacingLeft=4;spacingRight=4;overflow=hidden;rotatable=0;points=[[0,0.5],[1,0.5]];portConstraint=eastwest;whiteSpace=wrap;html=1;" vertex="1" parent="bbLPw2W6CgXG6qx6nMK9-12">
          <mxGeometry y="26" width="150" height="124" as="geometry" />
        </mxCell>
        <mxCell id="bbLPw2W6CgXG6qx6nMK9-14" value="" style="line;strokeWidth=1;fillColor=none;align=left;verticalAlign=middle;spacingTop=-1;spacingLeft=3;spacingRight=3;rotatable=0;labelPosition=right;points=[];portConstraint=eastwest;strokeColor=inherit;" vertex="1" parent="bbLPw2W6CgXG6qx6nMK9-12">
          <mxGeometry y="150" width="150" height="8" as="geometry" />
        </mxCell>
        <mxCell id="bbLPw2W6CgXG6qx6nMK9-15" value="+ addBook():void&lt;div&gt;+deleteBook():void&lt;/div&gt;&lt;div&gt;+updateBook():void&lt;/div&gt;&lt;div&gt;+searchBook():void&lt;/div&gt;" style="text;strokeColor=none;fillColor=none;align=left;verticalAlign=top;spacingLeft=4;spacingRight=4;overflow=hidden;rotatable=0;points=[[0,0.5],[1,0.5]];portConstraint=eastwest;whiteSpace=wrap;html=1;" vertex="1" parent="bbLPw2W6CgXG6qx6nMK9-12">
          <mxGeometry y="158" width="150" height="72" as="geometry" />
        </mxCell>
        <mxCell id="bbLPw2W6CgXG6qx6nMK9-16" value="Order" style="swimlane;fontStyle=1;align=center;verticalAlign=top;childLayout=stackLayout;horizontal=1;startSize=26;horizontalStack=0;resizeParent=1;resizeParentMax=0;resizeLast=0;collapsible=1;marginBottom=0;whiteSpace=wrap;html=1;" vertex="1" parent="1">
          <mxGeometry x="230" y="650" width="160" height="170" as="geometry" />
        </mxCell>
        <mxCell id="bbLPw2W6CgXG6qx6nMK9-17" value="-OrderID: String&lt;div&gt;-CustomerID: String&lt;/div&gt;&lt;div&gt;-OrderDate: Date&lt;/div&gt;&lt;div&gt;-status: String&lt;/div&gt;&lt;div&gt;-totalAmount: double&lt;/div&gt;" style="text;strokeColor=none;fillColor=none;align=left;verticalAlign=top;spacingLeft=4;spacingRight=4;overflow=hidden;rotatable=0;points=[[0,0.5],[1,0.5]];portConstraint=eastwest;whiteSpace=wrap;html=1;" vertex="1" parent="bbLPw2W6CgXG6qx6nMK9-16">
          <mxGeometry y="26" width="160" height="84" as="geometry" />
        </mxCell>
        <mxCell id="bbLPw2W6CgXG6qx6nMK9-18" value="" style="line;strokeWidth=1;fillColor=none;align=left;verticalAlign=middle;spacingTop=-1;spacingLeft=3;spacingRight=3;rotatable=0;labelPosition=right;points=[];portConstraint=eastwest;strokeColor=inherit;" vertex="1" parent="bbLPw2W6CgXG6qx6nMK9-16">
          <mxGeometry y="110" width="160" height="8" as="geometry" />
        </mxCell>
        <mxCell id="bbLPw2W6CgXG6qx6nMK9-19" value="+ createOrder(): void&lt;div&gt;+deleteOrder(): void&lt;/div&gt;&lt;div&gt;+updateOrderstatus(): void&lt;/div&gt;" style="text;strokeColor=none;fillColor=none;align=left;verticalAlign=top;spacingLeft=4;spacingRight=4;overflow=hidden;rotatable=0;points=[[0,0.5],[1,0.5]];portConstraint=eastwest;whiteSpace=wrap;html=1;" vertex="1" parent="bbLPw2W6CgXG6qx6nMK9-16">
          <mxGeometry y="118" width="160" height="52" as="geometry" />
        </mxCell>
        <mxCell id="bbLPw2W6CgXG6qx6nMK9-20" value="OrderItem" style="swimlane;fontStyle=1;align=center;verticalAlign=top;childLayout=stackLayout;horizontal=1;startSize=26;horizontalStack=0;resizeParent=1;resizeParentMax=0;resizeLast=0;collapsible=1;marginBottom=0;whiteSpace=wrap;html=1;" vertex="1" parent="1">
          <mxGeometry x="850" y="260" width="170" height="170" as="geometry" />
        </mxCell>
        <mxCell id="bbLPw2W6CgXG6qx6nMK9-21" value="- OrderItemID: String&lt;div&gt;- OrderID: String&lt;br&gt;&lt;/div&gt;&lt;div&gt;- BookID: String&lt;br&gt;&lt;/div&gt;&lt;div&gt;- quantity: int&lt;br&gt;&lt;/div&gt;&lt;div&gt;- price: double&lt;/div&gt;" style="text;strokeColor=none;fillColor=none;align=left;verticalAlign=top;spacingLeft=4;spacingRight=4;overflow=hidden;rotatable=0;points=[[0,0.5],[1,0.5]];portConstraint=eastwest;whiteSpace=wrap;html=1;" vertex="1" parent="bbLPw2W6CgXG6qx6nMK9-20">
          <mxGeometry y="26" width="170" height="84" as="geometry" />
        </mxCell>
        <mxCell id="bbLPw2W6CgXG6qx6nMK9-22" value="" style="line;strokeWidth=1;fillColor=none;align=left;verticalAlign=middle;spacingTop=-1;spacingLeft=3;spacingRight=3;rotatable=0;labelPosition=right;points=[];portConstraint=eastwest;strokeColor=inherit;" vertex="1" parent="bbLPw2W6CgXG6qx6nMK9-20">
          <mxGeometry y="110" width="170" height="8" as="geometry" />
        </mxCell>
        <mxCell id="bbLPw2W6CgXG6qx6nMK9-23" value="+ addItem(): void&lt;div&gt;+ deleteItem(): void&lt;/div&gt;&lt;div&gt;+ updateItemQuantity(): void&lt;/div&gt;" style="text;strokeColor=none;fillColor=none;align=left;verticalAlign=top;spacingLeft=4;spacingRight=4;overflow=hidden;rotatable=0;points=[[0,0.5],[1,0.5]];portConstraint=eastwest;whiteSpace=wrap;html=1;" vertex="1" parent="bbLPw2W6CgXG6qx6nMK9-20">
          <mxGeometry y="118" width="170" height="52" as="geometry" />
        </mxCell>
        <mxCell id="bbLPw2W6CgXG6qx6nMK9-24" value="Card" style="swimlane;fontStyle=1;align=center;verticalAlign=top;childLayout=stackLayout;horizontal=1;startSize=26;horizontalStack=0;resizeParent=1;resizeParentMax=0;resizeLast=0;collapsible=1;marginBottom=0;whiteSpace=wrap;html=1;" vertex="1" parent="1">
          <mxGeometry x="-230" y="60" width="270" height="140" as="geometry" />
        </mxCell>
        <mxCell id="bbLPw2W6CgXG6qx6nMK9-25" value="- cartId: String&lt;div&gt;- CustomerID : String&lt;/div&gt;" style="text;strokeColor=none;fillColor=none;align=left;verticalAlign=top;spacingLeft=4;spacingRight=4;overflow=hidden;rotatable=0;points=[[0,0.5],[1,0.5]];portConstraint=eastwest;whiteSpace=wrap;html=1;" vertex="1" parent="bbLPw2W6CgXG6qx6nMK9-24">
          <mxGeometry y="26" width="270" height="34" as="geometry" />
        </mxCell>
        <mxCell id="bbLPw2W6CgXG6qx6nMK9-26" value="" style="line;strokeWidth=1;fillColor=none;align=left;verticalAlign=middle;spacingTop=-1;spacingLeft=3;spacingRight=3;rotatable=0;labelPosition=right;points=[];portConstraint=eastwest;strokeColor=inherit;" vertex="1" parent="bbLPw2W6CgXG6qx6nMK9-24">
          <mxGeometry y="60" width="270" height="8" as="geometry" />
        </mxCell>
        <mxCell id="bbLPw2W6CgXG6qx6nMK9-27" value="+ addtoCart (BookID: String, quantity: int): void&lt;div&gt;&lt;span style=&quot;background-color: initial;&quot;&gt;+removefromCart ( BookID: String): void&lt;/span&gt;&lt;br&gt;&lt;/div&gt;&lt;div&gt;&lt;span style=&quot;background-color: initial;&quot;&gt;+updateCart (BookID: String, quantity: int): void&lt;/span&gt;&lt;/div&gt;&lt;div&gt;&lt;span style=&quot;background-color: initial;&quot;&gt;+clearCart (): void&lt;/span&gt;&lt;/div&gt;" style="text;strokeColor=none;fillColor=none;align=left;verticalAlign=top;spacingLeft=4;spacingRight=4;overflow=hidden;rotatable=0;points=[[0,0.5],[1,0.5]];portConstraint=eastwest;whiteSpace=wrap;html=1;" vertex="1" parent="bbLPw2W6CgXG6qx6nMK9-24">
          <mxGeometry y="68" width="270" height="72" as="geometry" />
        </mxCell>
        <mxCell id="bbLPw2W6CgXG6qx6nMK9-28" value="Payment" style="swimlane;fontStyle=1;align=center;verticalAlign=top;childLayout=stackLayout;horizontal=1;startSize=26;horizontalStack=0;resizeParent=1;resizeParentMax=0;resizeLast=0;collapsible=1;marginBottom=0;whiteSpace=wrap;html=1;" vertex="1" parent="1">
          <mxGeometry x="170" y="35" width="160" height="160" as="geometry" />
        </mxCell>
        <mxCell id="bbLPw2W6CgXG6qx6nMK9-29" value="-paymentID: String&lt;div&gt;-orderID: String&lt;br&gt;&lt;/div&gt;&lt;div&gt;-paymentMethod: String&lt;br&gt;&lt;/div&gt;&lt;div&gt;-paymentStatus: String&lt;br&gt;&lt;/div&gt;&lt;div&gt;-paymentDate: Date&lt;/div&gt;&lt;div&gt;&lt;br&gt;&lt;/div&gt;" style="text;strokeColor=none;fillColor=none;align=left;verticalAlign=top;spacingLeft=4;spacingRight=4;overflow=hidden;rotatable=0;points=[[0,0.5],[1,0.5]];portConstraint=eastwest;whiteSpace=wrap;html=1;" vertex="1" parent="bbLPw2W6CgXG6qx6nMK9-28">
          <mxGeometry y="26" width="160" height="84" as="geometry" />
        </mxCell>
        <mxCell id="bbLPw2W6CgXG6qx6nMK9-30" value="" style="line;strokeWidth=1;fillColor=none;align=left;verticalAlign=middle;spacingTop=-1;spacingLeft=3;spacingRight=3;rotatable=0;labelPosition=right;points=[];portConstraint=eastwest;strokeColor=inherit;" vertex="1" parent="bbLPw2W6CgXG6qx6nMK9-28">
          <mxGeometry y="110" width="160" height="8" as="geometry" />
        </mxCell>
        <mxCell id="bbLPw2W6CgXG6qx6nMK9-31" value="+ processPayment(): void&lt;div&gt;+refundPayment(): void&lt;/div&gt;" style="text;strokeColor=none;fillColor=none;align=left;verticalAlign=top;spacingLeft=4;spacingRight=4;overflow=hidden;rotatable=0;points=[[0,0.5],[1,0.5]];portConstraint=eastwest;whiteSpace=wrap;html=1;" vertex="1" parent="bbLPw2W6CgXG6qx6nMK9-28">
          <mxGeometry y="118" width="160" height="42" as="geometry" />
        </mxCell>
        <mxCell id="bbLPw2W6CgXG6qx6nMK9-35" value="" style="edgeStyle=entityRelationEdgeStyle;fontSize=12;html=1;endArrow=ERoneToMany;rounded=0;" edge="1" parent="1" source="bbLPw2W6CgXG6qx6nMK9-8" target="bbLPw2W6CgXG6qx6nMK9-16">
          <mxGeometry width="100" height="100" relative="1" as="geometry">
            <mxPoint x="190" y="470" as="sourcePoint" />
            <mxPoint x="290" y="370" as="targetPoint" />
          </mxGeometry>
        </mxCell>
        <mxCell id="bbLPw2W6CgXG6qx6nMK9-36" value="" style="edgeStyle=entityRelationEdgeStyle;fontSize=12;html=1;endArrow=ERoneToMany;rounded=0;" edge="1" parent="1" source="bbLPw2W6CgXG6qx6nMK9-8" target="bbLPw2W6CgXG6qx6nMK9-24">
          <mxGeometry width="100" height="100" relative="1" as="geometry">
            <mxPoint x="-70" y="604" as="sourcePoint" />
            <mxPoint x="220" y="310" as="targetPoint" />
          </mxGeometry>
        </mxCell>
        <mxCell id="bbLPw2W6CgXG6qx6nMK9-37" value="" style="edgeStyle=entityRelationEdgeStyle;fontSize=12;html=1;endArrow=ERoneToMany;rounded=0;" edge="1" parent="1" source="bbLPw2W6CgXG6qx6nMK9-16" target="bbLPw2W6CgXG6qx6nMK9-20">
          <mxGeometry width="100" height="100" relative="1" as="geometry">
            <mxPoint x="200" y="534" as="sourcePoint" />
            <mxPoint x="490" y="240" as="targetPoint" />
          </mxGeometry>
        </mxCell>
        <mxCell id="bbLPw2W6CgXG6qx6nMK9-38" value="" style="edgeStyle=entityRelationEdgeStyle;fontSize=12;html=1;endArrow=ERmandOne;startArrow=ERmandOne;rounded=0;exitX=0.335;exitY=0;exitDx=0;exitDy=0;exitPerimeter=0;" edge="1" parent="1" source="bbLPw2W6CgXG6qx6nMK9-16" target="bbLPw2W6CgXG6qx6nMK9-28">
          <mxGeometry width="100" height="100" relative="1" as="geometry">
            <mxPoint x="190" y="470" as="sourcePoint" />
            <mxPoint x="290" y="370" as="targetPoint" />
          </mxGeometry>
        </mxCell>
        <mxCell id="bbLPw2W6CgXG6qx6nMK9-39" value="" style="edgeStyle=entityRelationEdgeStyle;fontSize=12;html=1;endArrow=ERoneToMany;rounded=0;" edge="1" parent="1" source="bbLPw2W6CgXG6qx6nMK9-12" target="bbLPw2W6CgXG6qx6nMK9-20">
          <mxGeometry width="100" height="100" relative="1" as="geometry">
            <mxPoint x="70" y="490" as="sourcePoint" />
            <mxPoint x="170" y="410" as="targetPoint" />
            <Array as="points">
              <mxPoint x="70" y="470" />
              <mxPoint x="90" y="460" />
            </Array>
          </mxGeometry>
        </mxCell>
      </root>
    </mxGraphModel>
  </diagram>
</mxfile>
